<svg width="120" height="52" viewBox="0 0 120 52" fill="none" xmlns="http://www.w3.org/2000/svg">
<path d="M14.5125 20.4618C14.179 20.8803 13.7037 21.1576 13.1796 21.2397C12.9796 21.2397 12.8547 21.1636 12.813 21.0029C12.7786 20.714 12.8248 20.421 12.9463 20.1574C13.1381 19.615 13.3606 19.0842 13.6128 18.5678C13.921 17.8998 14.3292 17.0628 14.8458 16.0312L15.7455 14.188C16.0954 13.4524 16.4786 12.666 16.8952 11.8205C17.3117 10.975 17.7283 10.1294 18.1782 9.18245L19.4778 6.49367C20.4775 4.42212 21.5272 2.26602 22.6436 -0.0338135L17.4117 0.744073C16.2565 3.06646 15.1901 5.24228 14.2126 7.27155L12.9713 9.80814L12.7963 9.68131C12.1944 9.34716 11.516 9.18087 10.8302 9.19936C9.47816 9.18541 8.14585 9.52929 6.96462 10.1971C5.80984 10.8479 4.7821 11.7075 3.93213 12.7337C3.10828 13.7011 2.4443 14.7975 1.96601 15.9805C1.53546 16.998 1.29261 18.087 1.24954 19.1935C1.18431 20.096 1.43184 20.9932 1.94935 21.7301C2.23381 22.0794 2.59806 22.3529 3.01042 22.5268C3.42277 22.7007 3.87074 22.7697 4.31536 22.7278C5.00928 22.7322 5.69048 22.5389 6.28148 22.1698C6.91092 21.7799 7.47367 21.2887 7.94768 20.7155C8.08931 20.5463 8.21428 20.3603 8.34757 20.1743C8.34757 20.2758 8.30592 20.3688 8.29759 20.4618C8.24364 20.7434 8.24839 21.0333 8.31152 21.3129C8.37466 21.5925 8.49478 21.8556 8.66415 22.0852C8.94146 22.3389 9.27011 22.5278 9.62704 22.6388C9.98397 22.7499 10.3605 22.7802 10.7302 22.7278C11.2691 22.7288 11.8043 22.6373 12.3131 22.4572C12.8099 22.2801 13.2807 22.0355 13.7127 21.7301C14.1405 21.4278 14.5369 21.0822 14.8958 20.6985C15.2318 20.3012 15.5434 19.8833 15.8288 19.4472C16.5316 18.4479 17.1186 17.3698 17.5783 16.2342C17.0202 17.1558 16.4786 17.9929 15.9121 18.7707C15.4903 19.371 15.0223 19.9365 14.5125 20.4618ZM11.7133 12.3616C11.3301 13.1395 10.9968 13.8413 10.6969 14.4755L10.0971 15.7184C9.83882 16.2003 9.58889 16.6738 9.34729 17.1135C9.10569 17.5532 8.76412 18.1366 8.46421 18.6185C8.16429 19.1005 7.86437 19.5317 7.58112 19.9037C7.3259 20.2285 7.04744 20.5337 6.74802 20.8169C6.57862 21.0083 6.34886 21.1338 6.0982 21.172C5.64832 21.172 5.41505 20.9015 5.38173 20.3265C5.37288 19.6339 5.49154 18.9457 5.73163 18.2972C6.0357 17.3898 6.40895 16.5078 6.84799 15.6592C7.31075 14.7342 7.85151 13.8515 8.46421 13.0211C9.00917 12.2704 9.64133 11.589 10.347 10.9919C10.8401 10.4987 11.4895 10.1991 12.1798 10.1463C12.3589 10.1513 12.5349 10.1945 12.6964 10.2732C12.3465 11.0511 12.0216 11.7275 11.7133 12.3616ZM32.3742 18.7369C31.9417 19.3384 31.4626 19.9039 30.9413 20.428C30.6077 20.8465 30.1325 21.1238 29.6083 21.2059C29.4084 21.2059 29.2834 21.1298 29.2418 20.9691C29.2074 20.6802 29.2536 20.3872 29.3751 20.1236C29.5084 19.7262 29.725 19.202 30.0249 18.534C30.3248 17.866 30.7247 17.029 31.2412 15.9974C31.7577 14.9659 32.1993 14.0611 32.5908 13.2241C32.9824 12.387 33.324 11.6683 33.6405 11.0595C33.9571 10.4507 34.282 9.69822 34.5736 9.13171L29.575 9.8335C29.4584 9.75741 29.3501 9.6644 29.2168 9.5883C28.6111 9.26667 27.9338 9.10939 27.2507 9.13171C25.8991 9.12163 24.5677 9.46525 23.3851 10.1294C22.2303 10.7802 21.2025 11.6399 20.3526 12.666C19.5268 13.6352 18.8575 14.731 18.3698 15.9129C17.9171 16.9363 17.6626 18.0386 17.62 19.1597C17.5548 20.0622 17.8023 20.9594 18.3198 21.6963C18.6043 22.0456 18.9685 22.3191 19.3809 22.493C19.7932 22.6669 20.2412 22.7359 20.6858 22.694C21.3797 22.6984 22.0609 22.505 22.6519 22.1359C23.2814 21.7461 23.8441 21.2549 24.3181 20.6816C24.4598 20.5125 24.5847 20.3265 24.718 20.149C24.718 20.242 24.6764 20.335 24.6597 20.428C24.6073 20.7096 24.6128 20.9992 24.6759 21.2785C24.739 21.5579 24.8583 21.821 25.0263 22.0514C25.3039 22.3046 25.6326 22.4932 25.9894 22.6042C26.3463 22.7152 26.7227 22.7458 27.0924 22.694C27.6316 22.6997 28.1676 22.6081 28.6753 22.4234C29.172 22.2463 29.6428 22.0017 30.0749 21.6963C30.5043 21.3962 30.9009 21.0504 31.2579 20.6647C31.6121 20.284 31.9379 19.877 32.2326 19.4472C32.9552 18.4457 33.5488 17.3546 33.9988 16.2003C33.4489 17.1558 32.9074 17.9929 32.3742 18.7369ZM28.3753 11.8374C28.0838 12.4208 27.7672 13.0719 27.4256 13.7821C27.209 14.2218 27.0007 14.6699 26.7924 15.1181C26.4342 15.8114 26.0843 16.4709 25.7427 17.0797C25.4012 17.6885 25.1596 18.1028 24.8597 18.5847C24.5597 19.0667 24.2681 19.4979 24.0265 19.8699C23.7737 20.1967 23.4951 20.5021 23.1934 20.7831C23.0114 20.9852 22.7621 21.1117 22.4936 21.1382C22.0438 21.1382 21.8105 20.8564 21.7938 20.2927C21.7927 19.6007 21.9111 18.9139 22.1437 18.2634C22.437 17.3518 22.8107 16.4689 23.2601 15.6254C23.7422 14.7005 24.2996 13.8181 24.9263 12.9873C25.463 12.2504 26.0838 11.5806 26.7758 10.9919C27.2689 10.4987 27.9183 10.1991 28.6086 10.1463C28.7839 10.1523 28.9565 10.1925 29.1168 10.2647C28.8835 10.8312 28.6336 11.3385 28.3753 11.8374ZM43.1379 9.16554L38.6392 9.9096C39.2238 11.3523 39.6756 12.8468 39.9888 14.374C40.2175 15.4348 40.3293 16.5181 40.322 17.6039C40.3297 18.3615 40.1939 19.1136 39.9221 19.8192C39.7304 20.3242 39.4479 20.7886 39.089 21.1889C38.8244 21.4858 38.5007 21.7221 38.1393 21.8823C37.8932 21.9996 37.6275 22.0684 37.3562 22.0852C37.2205 22.0958 37.0859 22.055 36.9781 21.9707C36.8704 21.8863 36.7973 21.7645 36.773 21.6286C36.6941 21.2495 36.6941 20.8578 36.773 20.4787C36.8796 19.9647 37.0301 19.4611 37.2229 18.9737C37.4282 18.4508 37.6675 17.9423 37.9394 17.4517C38.1774 17.0246 38.4564 16.6224 38.7725 16.2511C38.9657 15.9899 39.2332 15.7952 39.5389 15.693C38.6758 15.3251 37.7232 15.2308 36.8063 15.4224C36.0824 15.5873 35.4149 15.9454 34.873 16.4597C34.3311 16.974 33.9344 17.6259 33.7239 18.348C33.5189 19.0107 33.4901 19.7166 33.6405 20.3942C33.7929 21.0617 34.1628 21.6575 34.6903 22.0852C35.3627 22.5741 36.1806 22.813 37.0063 22.7616C38.4007 22.7847 39.7812 22.4778 41.0385 21.8654C42.2037 21.3005 43.1694 20.3854 43.8044 19.2442C44.4833 17.9469 44.7893 16.482 44.6875 15.0166C44.5647 12.991 44.0375 11.0118 43.1379 9.19936V9.16554ZM60.908 18.7369C60.4594 19.3352 59.9694 19.9003 59.4417 20.428C59.1092 20.8477 58.6335 21.1254 58.1087 21.2059C57.7089 21.2059 57.6839 20.8169 58.0254 20.039C58.367 19.2611 59.0502 17.9252 60.0749 16.0312C61.369 13.6919 61.8688 11.9614 61.5745 10.8397C61.2829 9.72358 60.3748 9.14863 58.8419 9.14863C58.1272 9.13646 57.4214 9.31117 56.7924 9.65594C56.1715 10.0029 55.609 10.4482 55.1262 10.975C54.9431 11.1769 54.7707 11.3886 54.6097 11.6091L60.2082 7.6592e-06L54.9846 0.744073L44.3876 22.7278L49.6444 21.9837L51.9605 17.1558C52.2604 16.6146 52.552 16.0904 52.8435 15.5916C53.1351 15.0927 53.5184 14.4755 53.8766 13.9005C54.2348 13.3255 54.5764 12.8774 54.9096 12.4462C55.1957 12.0693 55.5196 11.7236 55.876 11.4146C56.1024 11.1932 56.3961 11.0561 56.7091 11.0257C56.9757 11.0257 57.1174 11.1525 57.1257 11.3977C57.1163 11.7467 57.0428 12.0908 56.9091 12.4124C56.7083 12.9427 56.4803 13.462 56.2259 13.9681C55.926 14.5769 55.6011 15.228 55.2429 15.9298L54.4931 17.4179C54.2348 17.9337 54.0099 18.441 53.8099 18.9398C53.6209 19.3967 53.4812 19.8729 53.3934 20.3603C53.3155 20.7532 53.3326 21.1594 53.4434 21.5441C53.4993 21.7249 53.59 21.8927 53.7101 22.0378C53.8302 22.1829 53.9774 22.3024 54.1432 22.3896C54.6325 22.6209 55.1706 22.7254 55.7094 22.694C56.2484 22.6956 56.7836 22.6041 57.2923 22.4234C57.789 22.2463 58.2599 22.0017 58.6919 21.6963C59.1213 21.3962 59.5179 21.0504 59.8749 20.6647C60.2152 20.2807 60.5297 19.8739 60.8163 19.4472C61.5156 18.4364 62.0971 17.3469 62.5492 16.2003C62.016 17.1558 61.4661 17.9929 60.908 18.7369Z" fill="#F34441"/>
<path d="M7.16468 48.9393C8.8956 49.0283 10.6016 48.4921 11.98 47.4258C12.5827 46.8945 13.058 46.2307 13.3698 45.485C13.6817 44.7392 13.8218 43.931 13.7795 43.122C13.7991 41.8869 13.379 40.6861 12.5965 39.7399C11.8234 38.7781 10.7297 38.1374 9.52236 37.9389C10.5179 37.6739 11.3977 37.0786 12.0217 36.2479C12.6272 35.4394 12.947 34.4477 12.9297 33.4323C12.9845 32.6419 12.8485 31.8499 12.5335 31.125C12.2185 30.4001 11.7339 29.7641 11.1219 29.2723C9.64702 28.275 7.89267 27.7912 6.1233 27.8941H0V48.9393H7.16468ZM7.43127 38.7929C8.05668 38.7494 8.68433 38.834 9.27686 39.0417C9.86939 39.2495 10.4147 39.576 10.8803 40.002C11.2801 40.4106 11.5922 40.8987 11.7973 41.4357C12.0023 41.9726 12.0957 42.5467 12.0716 43.122C12.1059 43.7217 12.006 44.3215 11.7795 44.8764C11.553 45.4314 11.2057 45.9271 10.7637 46.3266C9.74214 47.1414 8.46157 47.5475 7.16468 47.468H1.6662V38.8098L7.43127 38.7929ZM1.6662 29.3737H6.04832C7.39391 29.2818 8.73261 29.6348 9.86393 30.3799C10.3068 30.7324 10.6582 31.1893 10.8876 31.7109C11.117 32.2325 11.2174 32.8031 11.1802 33.3731C11.2197 33.9339 11.1287 34.4962 10.9145 35.0147C10.7003 35.5332 10.369 35.9933 9.94724 36.3578C8.9334 37.0863 7.70473 37.4413 6.46487 37.364H1.6662V29.3737Z" fill="white"/>
<path d="M32.6827 36.7129C32.7894 34.3137 32.0011 31.9618 30.475 30.1262C29.7366 29.2864 28.8238 28.6232 27.8024 28.1846C26.781 27.746 25.6764 27.5428 24.5683 27.5897C23.4709 27.5403 22.3767 27.7428 21.367 28.182C20.3573 28.6211 19.4582 29.2857 18.7366 30.1262C17.2341 31.9728 16.462 34.3206 16.5705 36.7129V40.095C16.4612 42.4874 17.2334 44.8355 18.7366 46.6817C19.4602 47.5198 20.3596 48.1828 21.3688 48.6217C22.378 49.0607 23.4713 49.2645 24.5683 49.2183C25.675 49.2639 26.778 49.0601 27.7979 48.6215C28.8177 48.1829 29.7292 47.5204 30.4667 46.6817C31.9905 44.8453 32.7759 42.4933 32.6661 40.095V36.7129H32.6827ZM31.0165 40.1542C31.1207 42.1418 30.5307 44.1029 29.3503 45.6924C28.7761 46.3853 28.0515 46.9337 27.2334 47.2946C26.4152 47.6554 25.5258 47.819 24.635 47.7724C23.7523 47.8142 22.8724 47.6447 22.0663 47.2775C21.2601 46.9103 20.5504 46.3557 19.9946 45.6586C18.8206 44.0691 18.2312 42.1129 18.3284 40.1288V36.696C18.2383 34.7233 18.8274 32.7802 19.9946 31.2001C20.5478 30.5081 21.2541 29.9583 22.0561 29.5954C22.858 29.2325 23.733 29.0668 24.61 29.1116C25.5024 29.0693 26.3924 29.2356 27.2114 29.5977C28.0304 29.9598 28.7565 30.508 29.3337 31.2001C30.5137 32.7735 31.1042 34.7214 30.9999 36.696V40.1542H31.0165Z" fill="white"/>
<path d="M48.5365 27.9025V42.1496C48.5847 42.9202 48.4657 43.6921 48.1879 44.4109C47.9101 45.1297 47.4802 45.7779 46.9286 46.3096C45.7712 47.3115 44.2828 47.8312 42.7631 47.7639C41.2641 47.8344 39.7969 47.3098 38.6725 46.3012C38.1345 45.7628 37.7163 45.1137 37.4462 44.3976C37.176 43.6815 37.0601 42.915 37.1063 42.1496V27.9025H35.4401V42.1581C35.3769 43.1325 35.5263 44.109 35.8777 45.0181C36.229 45.9272 36.7737 46.7464 37.4729 47.4173C38.9618 48.6827 40.8647 49.3345 42.8047 49.2436C44.7631 49.3311 46.6848 48.684 48.2032 47.4257C48.9129 46.7593 49.4673 45.9407 49.8262 45.0295C50.185 44.1183 50.3392 43.1374 50.2776 42.1581V27.9025H48.5365Z" fill="white"/>
<path d="M69.0392 36.7128C69.1426 34.314 68.3547 31.9633 66.8315 30.1261C66.093 29.2863 65.1802 28.6231 64.1588 28.1845C63.1374 27.7459 62.0329 27.5427 60.9248 27.5896C59.8275 27.5415 58.7337 27.7445 57.7242 28.1836C56.7147 28.6227 55.8155 29.2866 55.093 30.1261C53.5941 31.9747 52.8225 34.3211 52.927 36.7128V40.0949C52.8168 42.4889 53.5923 44.8382 55.1014 46.6816C55.8238 47.5212 56.723 48.1851 57.7325 48.6242C58.742 49.0633 59.8358 49.2663 60.9331 49.2182C61.5902 49.2337 62.2469 49.1741 62.8909 49.0406C63.5056 48.9074 64.1017 48.6973 64.6654 48.4149L68.4227 52.0084L69.6057 50.9262L66.0483 47.544C67.0269 46.7119 67.7857 45.6454 68.2561 44.441C68.7963 43.0853 69.0626 41.6332 69.0392 40.171V36.7889V36.7128ZM67.373 40.1541C67.4772 42.1417 66.8871 44.1028 65.7068 45.6923C65.1313 46.3859 64.4052 46.9346 63.5857 47.2955C62.7661 47.6564 61.8753 47.8196 60.9831 47.7723C60.096 47.821 59.2102 47.6546 58.399 47.2871C57.5877 46.9195 56.8743 46.3613 56.3177 45.6585C55.1437 44.069 54.5543 42.1128 54.6515 40.1288V36.6959C54.5614 34.7232 55.1505 32.7801 56.3177 31.2C56.8709 30.508 57.5772 29.9582 58.3792 29.5953C59.1812 29.2324 60.0562 29.0667 60.9331 29.1115C61.8247 29.0659 62.7145 29.2308 63.5327 29.5932C64.3508 29.9556 65.0751 30.5056 65.6485 31.2C66.8285 32.7734 67.419 34.7214 67.3147 36.6959V40.1541H67.373Z" fill="white"/>
<path d="M85.0514 27.9025V42.1496C85.0997 42.9202 84.9807 43.6921 84.7029 44.4109C84.425 45.1297 83.9952 45.7779 83.4436 46.3096C82.2854 47.31 80.7975 47.8295 79.278 47.7639C77.7815 47.8349 76.3168 47.31 75.1958 46.3012C74.656 45.7641 74.2367 45.1153 73.9664 44.3988C73.6961 43.6824 73.5812 42.9152 73.6296 42.1496V27.9025H71.9134V42.1581C71.8502 43.1325 71.9996 44.109 72.351 45.0181C72.7024 45.9272 73.247 46.7464 73.9462 47.4173C75.433 48.6807 77.3325 49.3324 79.2697 49.2436C81.2308 49.3324 83.1555 48.6853 84.6765 47.4257C85.3838 46.7578 85.936 45.9387 86.2933 45.0277C86.6506 44.1167 86.8041 43.1366 86.7426 42.1581V27.9025H85.0514Z" fill="white"/>
<path d="M102.321 37.2794H92.3243V29.3737H103.688V27.9025H90.6497V48.9392H103.779V47.468H92.3409V38.7506H102.338L102.321 37.2794Z" fill="white"/>
<path d="M119.967 27.9025H104.03V29.3737H111.161V48.9392H112.827V29.3737H119.967V27.9025Z" fill="white"/>
</svg>
