<svg width="16" height="16" viewBox="0 0 16 16" fill="none" xmlns="http://www.w3.org/2000/svg">
<g clip-path="url(#clip0_3:899)">
<path d="M8.00063 2.07048e-05C6.01143 -0.00450248 4.09189 0.732225 2.61651 2.06647C1.14113 3.40071 0.21575 5.23676 0.0209086 7.2164C-0.173933 9.19605 0.37574 11.1773 1.56269 12.7736C2.74964 14.3698 4.48872 15.4666 6.44063 15.85C7.53485 16.0649 8.66191 16.0487 9.74949 15.8024C10.8371 15.5561 11.8611 15.0851 12.756 14.4198C13.6508 13.7544 14.3967 12.9092 14.9457 11.9386C15.4947 10.968 15.8347 9.89336 15.944 8.7836C16.0532 7.67384 15.9292 6.5535 15.58 5.49448C15.2307 4.43546 14.6639 3.46115 13.916 2.63407C13.168 1.80699 12.2554 1.14542 11.2367 0.691806C10.218 0.238192 9.11575 0.00255634 8.00063 2.07048e-05ZM9.00063 12.24H7.00063V7.15002H9.00063V12.24ZM9.00063 5.69002H7.00063V3.76002H9.00063V5.69002Z" fill="#A1A1B9"/>
</g>
<defs>
<clipPath id="clip0_3:899">
<rect width="16" height="16" fill="white"/>
</clipPath>
</defs>
</svg>
