<svg width="20" height="20" viewBox="0 0 20 20" fill="none" xmlns="http://www.w3.org/2000/svg">
<g clip-path="url(#clip0_3:773)">
<path d="M10.068 10.3744C12.7456 10.3744 14.9231 7.53289 14.9231 4.85578C14.9231 2.17844 12.7456 0 10.068 0C7.39089 0 5.21289 2.17822 5.21289 4.85556C5.21311 7.53289 7.39111 10.3744 10.068 10.3744Z" fill="#A1A1B9"/>
<path d="M13.7136 10.4242C12.7716 11.1418 11.5967 11.5689 10.324 11.5689H9.81289C8.54022 11.5689 7.36511 11.1418 6.42334 10.4242C3.34822 10.9213 1 13.5869 1 16.802C1 18.5682 5.06 20.0002 10.0684 20.0002C15.0769 20.0002 19.1369 18.5682 19.1369 16.802C19.1369 13.5869 16.7884 10.9213 13.7136 10.4242Z" fill="#A1A1B9"/>
</g>
<defs>
<clipPath id="clip0_3:773">
<rect width="20" height="20" fill="white"/>
</clipPath>
</defs>
</svg>
