<svg width="20" height="20" viewBox="0 0 20 20" fill="none" xmlns="http://www.w3.org/2000/svg">
<path d="M19.3702 12.7354L18.5702 12.0741C18.0851 11.6707 17.8183 11.0617 17.8502 10.4309C17.8502 10.2906 17.8502 10.1403 17.8502 10C17.8502 9.85972 17.8502 9.70942 17.8502 9.56914C17.8183 8.9383 18.0851 8.32932 18.5702 7.92587L19.3702 7.26455C19.7498 6.95612 19.8513 6.41797 19.6102 5.99202L18.4502 3.98803C18.2043 3.56962 17.6944 3.38806 17.2402 3.55717L16.2402 3.91789C15.6501 4.13888 14.9905 4.06834 14.4602 3.72751C14.2251 3.56478 13.9777 3.42072 13.7202 3.29665C13.1575 3.0075 12.7644 2.46873 12.6602 1.84376L12.4902 0.84176C12.411 0.351727 11.9856 -0.00630458 11.4902 8.41592e-05H9.1902C8.6948 -0.00630458 8.26943 0.351727 8.1902 0.84176L8.0202 1.84376C7.92468 2.46084 7.54754 2.99804 7.0002 3.29665C6.7427 3.42072 6.49528 3.56478 6.2602 3.72751C5.72991 4.06834 5.07034 4.13888 4.4802 3.91789L3.4802 3.55717C3.03175 3.39911 2.53423 3.57925 2.2902 3.98803L1.1302 5.99202C0.889122 6.41797 0.990617 6.95612 1.3702 7.26455L2.1702 7.92587C2.65525 8.32932 2.92207 8.9383 2.8902 9.56914C2.8902 9.70942 2.8902 9.85972 2.8902 10C2.8902 10.1403 2.8902 10.2906 2.8902 10.4309C2.92207 11.0617 2.65525 11.6707 2.1702 12.0741L1.3702 12.7354C0.990617 13.0439 0.889122 13.582 1.1302 14.008L2.2902 16.012C2.53607 16.4304 3.04595 16.6119 3.5002 16.4428L4.5002 16.0821C5.09034 15.8611 5.74991 15.9317 6.2802 16.2725C6.51528 16.4352 6.7627 16.5793 7.0202 16.7034C7.5829 16.9925 7.97597 17.5313 8.0802 18.1562L8.2502 19.1582C8.32943 19.6483 8.7548 20.0063 9.2502 19.9999H11.5502C12.0456 20.0063 12.471 19.6483 12.5502 19.1582L12.7202 18.1562C12.8244 17.5313 13.2175 16.9925 13.7802 16.7034C14.0377 16.5793 14.2851 16.4352 14.5202 16.2725C15.0505 15.9317 15.7101 15.8611 16.3002 16.0821L17.3002 16.4428C17.7368 16.5797 18.2103 16.4022 18.4502 16.012L19.6102 14.008C19.8513 13.582 19.7498 13.0439 19.3702 12.7354ZM10.3702 13.006C8.71334 13.006 7.3702 11.6602 7.3702 10C7.3702 8.33984 8.71334 6.99401 10.3702 6.99401C12.0271 6.99401 13.3702 8.33984 13.3702 10C13.3702 10.7972 13.0541 11.5618 12.4915 12.1256C11.9289 12.6893 11.1658 13.006 10.3702 13.006Z" fill="#A1A1B9"/>
</svg>
