<svg width="16" height="16" viewBox="0 0 16 16" fill="none" xmlns="http://www.w3.org/2000/svg">
<path d="M10.57 7.43026C11.3137 7.43502 12.0303 7.15194 12.57 6.64026C12.8289 6.39199 13.035 6.09391 13.1757 5.76395C13.3165 5.434 13.389 5.07898 13.389 4.72026C13.389 4.36154 13.3165 4.00652 13.1757 3.67656C13.035 3.34661 12.8289 3.04853 12.57 2.80026C12.0343 2.2813 11.3159 1.99395 10.57 2.00026C10.0124 1.99265 9.46535 2.15292 9 2.46026C9.48254 3.11541 9.7451 3.9066 9.75 4.72026C9.74934 5.54076 9.48657 6.33959 9 7.00026C9.46871 7.29703 10.0155 7.44679 10.57 7.43026Z" fill="#BB6BD9"/>
<path d="M4.00001 7.00028C4.54189 7.34936 5.18521 7.50656 5.82701 7.44673C6.46881 7.3869 7.07199 7.1135 7.54001 6.67028C7.80817 6.4206 8.0227 6.11896 8.17055 5.78372C8.3184 5.44848 8.39647 5.08666 8.40001 4.72028C8.40262 4.18055 8.23847 3.65319 7.93001 3.21028C7.61907 2.75881 7.18029 2.41058 6.67001 2.21028C6.16596 2.01101 5.6153 1.96069 5.08348 2.06528C4.55166 2.16987 4.06106 2.42498 3.67001 2.80028C3.26921 3.17495 2.99509 3.66518 2.88577 4.20283C2.77644 4.74048 2.83735 5.29884 3.06001 5.80028C3.25542 6.28005 3.58099 6.69567 4.00001 7.00028Z" fill="#BB6BD9"/>
<path d="M5.6 9.00024C0 9.00024 0 12.0802 0 12.0802V14.6902H11.2V12.0802C11.2 12.0802 11.2 9.00024 5.6 9.00024Z" fill="#BB6BD9"/>
<path d="M11.15 9.00024C11.6411 9.36677 12.0442 9.83822 12.33 10.3802C12.6191 10.9089 12.7801 11.498 12.8 12.1002V14.7102H16V12.0802C16 12.0802 16 9.27024 11.15 9.00024Z" fill="#BB6BD9"/>
</svg>